<?xml version="1.0" encoding="utf-8"?>
<!-- Generator: Adobe Illustrator 26.5.0, SVG Export Plug-In . SVG Version: 6.00 Build 0)  -->
<svg version="1.1" id="Calque_1" xmlns="http://www.w3.org/2000/svg" xmlns:xlink="http://www.w3.org/1999/xlink" x="0px" y="0px"
	 viewBox="0 0 24 24" style="enable-background:new 0 0 24 24;" xml:space="preserve">
<style type="text/css">
	.st0{fill:none;}
	.st1{fill-rule:evenodd;clip-rule:evenodd;}
</style>
<g id="System_00000138545238822379943860000014689089983249913244_" transform="translate(-192.000000, -240.000000)">
	<g id="minimize_fill" transform="translate(192.000000, 240.000000)">
		<rect id="矩形" class="st0" width="24" height="24"/>
		<path id="路径" class="st1" d="M2.5,12c0-0.8,0.7-1.5,1.5-1.5h16c0.8,0,1.5,0.7,1.5,1.5s-0.7,1.5-1.5,1.5H4
			C3.2,13.5,2.5,12.8,2.5,12z"/>
		<path id="路径_00000024003254637438360940000017780482372573835709_" class="st1" d="M12,2.5c0.8,0,1.5,0.7,1.5,1.5v16
			c0,0.8-0.7,1.5-1.5,1.5s-1.5-0.7-1.5-1.5V4C10.5,3.2,11.2,2.5,12,2.5z"/>
	</g>
</g>
</svg>
